<svg width="543" height="543" viewBox="0 0 543 543" fill="none" xmlns="http://www.w3.org/2000/svg">
<path d="M153.722 144.67C153.098 144.028 152.302 143.714 151.337 143.731C150.386 143.732 149.46 144.171 148.557 145.048C147.792 145.791 147.343 146.539 147.212 147.292C147.065 148.029 147.252 148.665 147.772 149.201C148.04 149.476 148.339 149.676 148.669 149.802C148.984 149.912 149.361 149.933 149.799 149.864C150.238 149.764 150.739 149.576 151.301 149.297C151.879 149.004 152.564 148.591 153.356 148.06C155.336 146.73 157.12 145.994 158.706 145.852C160.292 145.709 161.769 146.341 163.136 147.749L163.404 148.024C164.132 148.774 164.656 149.589 164.975 150.468C165.295 151.318 165.41 152.202 165.321 153.121C165.233 154.04 164.94 154.964 164.444 155.892C163.948 156.82 163.248 157.723 162.345 158.6C161.29 159.625 160.215 160.387 159.121 160.884C158.028 161.351 156.962 161.584 155.921 161.584C154.865 161.569 153.857 161.343 152.898 160.907C151.924 160.455 151.028 159.808 150.211 158.967L149.542 158.278L152.571 155.335L153.107 155.886C154.043 156.85 155.069 157.355 156.185 157.401C157.301 157.418 158.448 156.853 159.627 155.709C160.545 154.817 161.032 153.957 161.09 153.128C161.147 152.299 160.908 151.609 160.373 151.058C160.12 150.798 159.836 150.598 159.522 150.457C159.192 150.302 158.823 150.243 158.415 150.283C157.993 150.307 157.508 150.436 156.961 150.669C156.415 150.902 155.784 151.263 155.067 151.75C154.123 152.401 153.21 152.945 152.328 153.385C151.432 153.81 150.553 154.084 149.691 154.207C148.845 154.315 148.016 154.228 147.206 153.945C146.395 153.661 145.603 153.122 144.83 152.326L144.697 152.188C144.057 151.53 143.6 150.8 143.325 149.996C143.051 149.162 142.95 148.308 143.023 147.434C143.111 146.546 143.381 145.659 143.831 144.776C144.297 143.877 144.95 143.019 145.792 142.202C146.741 141.28 147.716 140.6 148.718 140.162C149.705 139.709 150.667 139.474 151.602 139.457C152.553 139.426 153.441 139.59 154.266 139.949C155.105 140.293 155.845 140.794 156.484 141.452L157.287 142.278L154.257 145.221L153.722 144.67ZM156.591 132.891L159.953 130.334L165.493 137.619L171.249 133.241L165.709 125.957L169.072 123.4L182.631 141.23L179.269 143.786L173.69 136.451L167.934 140.829L173.512 148.164L170.15 150.721L156.591 132.891ZM193.247 129.236L186.672 133.08L188.155 137.773L184.342 140.001L177.653 117.965L184.504 113.961L200.421 130.603L196.609 132.831L193.247 129.236ZM185.411 129.146L190.411 126.224L182.393 117.641L181.896 117.932L185.411 129.146ZM216.519 123.659L212.639 125.328L209.984 119.155C209.781 118.684 209.49 118.357 209.108 118.173C208.747 117.98 208.282 118.006 207.713 118.25L203.245 120.172L206.583 127.932L202.702 129.601L193.853 109.024L201.731 105.635C202.789 105.18 203.783 104.927 204.713 104.875C205.643 104.824 206.486 104.949 207.243 105.25C208.011 105.524 208.68 105.944 209.249 106.512C209.838 107.072 210.301 107.744 210.638 108.527L210.942 109.233C211.304 110.076 211.42 110.966 211.29 111.905C211.151 112.824 210.695 113.682 209.923 114.478L210.151 115.007C210.87 114.791 211.523 114.823 212.109 115.106C212.714 115.379 213.164 115.859 213.459 116.545L216.519 123.659ZM201.652 116.468L205.356 114.875C206.297 114.47 206.919 113.947 207.224 113.305C207.52 112.644 207.495 111.911 207.15 111.108L206.998 110.755C206.703 110.069 206.205 109.586 205.505 109.307C204.795 109.008 203.971 109.061 203.03 109.466L199.326 111.059L201.652 116.468ZM214.518 100.672L228.1 96.7246L229.225 100.596L219.699 103.365L221.129 108.282L230.286 105.62L231.411 109.492L222.254 112.153L223.701 117.131L233.595 114.256L234.721 118.127L220.77 122.182L214.518 100.672ZM263.139 106.317L262.18 106.353L255.206 92.0769L259.811 91.9036L264.817 102.411L265.393 102.389L269.596 91.5354L274.2 91.3621L268.319 106.122L267.36 106.158L267.656 114.024L263.435 114.183L263.139 106.317ZM277.689 100.229C277.933 97.3381 278.845 95.1564 280.425 93.684C282.027 92.2134 284.113 91.5865 286.685 91.8035C289.258 92.0205 291.199 92.9871 292.51 94.7034C293.843 96.4215 294.387 98.726 294.143 101.617L293.723 106.591C293.472 109.568 292.548 111.77 290.95 113.198C289.374 114.628 287.299 115.234 284.727 115.017C282.155 114.8 280.201 113.854 278.865 112.178C277.551 110.505 277.019 108.18 277.27 105.203L277.689 100.229ZM285.05 111.191C285.815 111.255 286.463 111.192 286.993 111.001C287.525 110.789 287.969 110.473 288.325 110.054C288.682 109.634 288.95 109.122 289.129 108.516C289.309 107.91 289.43 107.236 289.493 106.491L289.955 101.007C290.015 100.305 289.996 99.6402 289.899 99.0112C289.802 98.3821 289.613 97.831 289.332 97.3576C289.051 96.8843 288.666 96.4986 288.177 96.2005C287.69 95.8811 287.085 95.6909 286.363 95.6299C285.64 95.569 285.012 95.6551 284.478 95.8885C283.947 96.1005 283.502 96.4163 283.146 96.8358C282.789 97.2553 282.511 97.767 282.31 98.371C282.109 98.9749 281.979 99.6276 281.92 100.329L281.457 105.814C281.395 106.558 281.401 107.243 281.476 107.871C281.552 108.498 281.73 109.048 282.012 109.521C282.293 109.995 282.678 110.38 283.166 110.679C283.657 110.955 284.285 111.126 285.05 111.191ZM316.257 97.0876L313.262 111.434C312.739 113.94 311.661 115.764 310.028 116.905C308.416 118.05 306.305 118.351 303.695 117.806C301.084 117.261 299.259 116.139 298.219 114.44C297.2 112.745 296.951 110.645 297.474 108.139L300.469 93.7923L304.604 94.6553L301.609 109.002C301.339 110.297 301.431 111.373 301.884 112.23C302.337 113.088 303.211 113.651 304.505 113.922C305.8 114.192 306.827 114.025 307.585 113.42C308.343 112.816 308.857 111.866 309.127 110.571L312.122 96.2245L316.257 97.0876ZM329.507 124.895L325.508 123.535L327.671 117.173C327.836 116.688 327.838 116.249 327.679 115.857C327.539 115.472 327.177 115.18 326.591 114.981L321.986 113.415L319.267 121.414L315.267 120.054L322.477 98.8459L330.597 101.606C331.687 101.977 332.595 102.455 333.32 103.039C334.045 103.624 334.588 104.281 334.948 105.012C335.335 105.729 335.55 106.49 335.592 107.293C335.655 108.102 335.549 108.911 335.274 109.719L335.027 110.446C334.732 111.315 334.221 112.054 333.496 112.664C332.777 113.253 331.865 113.585 330.758 113.659L330.572 114.205C331.252 114.526 331.715 114.987 331.961 115.589C332.227 116.198 332.24 116.856 332 117.563L329.507 124.895ZM323.283 109.598L327.101 110.895C328.07 111.225 328.883 111.253 329.539 110.981C330.202 110.688 330.674 110.127 330.956 109.299L331.079 108.935C331.32 108.229 331.273 107.537 330.94 106.86C330.613 106.163 329.965 105.65 328.996 105.321L325.178 104.023L323.283 109.598ZM362.663 137.23L356.265 133.098L352.747 136.54L349.038 134.144L365.679 118.227L372.346 122.532L364.683 144.248L360.973 141.852L362.663 137.23ZM359.206 130.197L364.071 133.339L368.109 122.31L367.625 121.997L359.206 130.197ZM374.55 148.058C375.172 148.579 375.754 148.913 376.298 149.062C376.871 149.208 377.394 149.214 377.867 149.081C378.37 148.946 378.833 148.708 379.257 148.367C379.695 148.01 380.099 147.611 380.469 147.169L380.838 146.728L384.077 149.439L383.708 149.88C381.996 151.925 380.135 153.052 378.124 153.261C376.144 153.467 374.131 152.714 372.086 151.003C370.123 149.36 369.068 147.462 368.923 145.309C368.777 143.157 369.662 140.935 371.579 138.645L374.783 134.817C375.701 133.72 376.669 132.862 377.69 132.242C378.723 131.605 379.765 131.224 380.814 131.101C381.877 130.961 382.931 131.064 383.976 131.411C385.035 131.741 386.056 132.317 387.037 133.138C388.052 133.987 388.828 134.887 389.367 135.839C389.906 136.791 390.204 137.764 390.262 138.758C390.337 139.766 390.176 140.772 389.781 141.777C389.401 142.795 388.801 143.795 387.98 144.776L387.61 145.218L384.371 142.507L384.74 142.065C385.083 141.656 385.376 141.206 385.62 140.715C385.864 140.224 386.009 139.719 386.054 139.2C386.098 138.681 386.007 138.159 385.778 137.634C385.564 137.093 385.162 136.576 384.573 136.083C384.033 135.631 383.478 135.347 382.907 135.231C382.35 135.099 381.79 135.103 381.227 135.244C380.678 135.369 380.139 135.613 379.611 135.978C379.113 136.34 378.652 136.775 378.228 137.282L374.613 141.601C374.148 142.157 373.774 142.721 373.491 143.291C373.222 143.845 373.067 144.396 373.025 144.945C372.982 145.494 373.076 146.031 373.304 146.556C373.562 147.078 373.978 147.579 374.55 148.058ZM397.135 142.669L408.144 154.455L405.198 157.207L401.135 152.858L387.712 165.395L384.828 162.309L398.252 149.771L394.189 145.421L397.135 142.669ZM412.184 159.425L421.014 171.52L417.758 173.898L414.588 169.556L403.009 178.009L406.179 182.351L402.923 184.728L394.092 172.633L397.349 170.255L400.519 174.597L412.097 166.144L408.927 161.802L412.184 159.425ZM416.798 180.993C419.332 179.579 421.65 179.115 423.754 179.601C425.869 180.107 427.556 181.486 428.814 183.74C430.072 185.994 430.357 188.144 429.667 190.191C428.987 192.256 427.381 193.996 424.848 195.41L420.489 197.844C417.881 199.3 415.539 199.764 413.461 199.238C411.395 198.731 409.732 197.35 408.474 195.097C407.215 192.843 406.907 190.694 407.549 188.649C408.202 186.623 409.832 184.882 412.44 183.426L416.798 180.993ZM411.826 193.225C412.201 193.895 412.615 194.397 413.07 194.729C413.543 195.052 414.053 195.243 414.6 195.304C415.147 195.365 415.722 195.301 416.325 195.111C416.927 194.921 417.555 194.644 418.206 194.28L423.012 191.597C423.627 191.254 424.168 190.866 424.635 190.434C425.103 190.002 425.454 189.537 425.689 189.04C425.924 188.542 426.029 188.007 426.003 187.435C425.995 186.853 425.815 186.245 425.461 185.612C425.108 184.979 424.685 184.506 424.193 184.194C423.72 183.872 423.21 183.68 422.663 183.619C422.116 183.558 421.535 183.613 420.922 183.785C420.31 183.956 419.696 184.213 419.081 184.556L414.275 187.239C413.623 187.603 413.059 187.992 412.581 188.405C412.103 188.819 411.746 189.274 411.511 189.772C411.276 190.27 411.172 190.805 411.198 191.377C411.242 191.938 411.452 192.554 411.826 193.225ZM420.27 214.237L420.487 214.771L439.281 207.129L440.872 211.042L420.122 219.479L417.012 211.831L434.818 201.759L434.601 201.225L415.807 208.867L414.216 204.954L434.966 196.517L438.076 204.165L420.27 214.237ZM430.678 240.734L432.939 240.509L435.259 263.753C435.946 264.199 436.634 264.645 437.255 265.066C437.78 264.531 438.366 263.958 438.952 263.385L436.632 240.14L438.893 239.915L441.048 261.503C442.857 259.972 444.742 258.562 446.525 257.419L446.71 259.266C444.324 261.787 441.432 265.035 438.091 269.259L437.263 269.342C433.153 265.861 429.677 263.249 426.84 261.249L426.656 259.402C428.63 260.17 430.757 261.18 432.833 262.323L430.678 240.734ZM440.495 306.905C441.375 307.069 442.205 306.866 442.985 306.295C443.76 305.745 444.263 304.852 444.494 303.615C444.69 302.566 444.624 301.697 444.297 301.006C443.991 300.32 443.471 299.908 442.737 299.771C442.36 299.701 442 299.709 441.658 299.798C441.337 299.89 441.017 300.09 440.699 300.4C440.398 300.734 440.098 301.178 439.8 301.73C439.498 302.303 439.177 303.035 438.837 303.926C437.987 306.155 436.956 307.785 435.743 308.818C434.53 309.85 432.959 310.186 431.03 309.826L430.653 309.756C429.625 309.564 428.727 309.201 427.959 308.667C427.207 308.158 426.602 307.503 426.144 306.701C425.686 305.899 425.392 304.976 425.261 303.932C425.131 302.888 425.181 301.747 425.412 300.509C425.682 299.062 426.12 297.82 426.726 296.783C427.348 295.771 428.085 294.964 428.935 294.363C429.806 293.766 430.759 293.369 431.794 293.172C432.85 292.978 433.955 292.989 435.108 293.204L436.052 293.38L435.277 297.533L434.522 297.392C433.201 297.145 432.072 297.325 431.134 297.931C430.213 298.563 429.602 299.685 429.301 301.3C429.066 302.559 429.164 303.543 429.596 304.253C430.028 304.962 430.621 305.388 431.376 305.529C431.733 305.595 432.08 305.595 432.418 305.528C432.777 305.465 433.112 305.299 433.422 305.032C433.753 304.768 434.075 304.383 434.386 303.877C434.698 303.371 435.005 302.712 435.309 301.901C435.705 300.824 436.136 299.852 436.601 298.984C437.088 298.12 437.648 297.389 438.28 296.791C438.909 296.214 439.636 295.807 440.461 295.57C441.287 295.334 442.245 295.317 443.335 295.521L443.524 295.556C444.426 295.724 445.221 296.057 445.909 296.554C446.615 297.077 447.19 297.716 447.635 298.471C448.076 299.248 448.367 300.127 448.51 301.109C448.648 302.111 448.61 303.189 448.395 304.342C448.152 305.643 447.748 306.761 447.183 307.697C446.638 308.637 445.989 309.384 445.235 309.938C444.476 310.512 443.657 310.891 442.776 311.074C441.892 311.278 440.999 311.296 440.097 311.128L438.965 310.916L439.74 306.764L440.495 306.905ZM444.942 318.204L443.668 322.231L434.942 319.47L432.76 326.366L441.486 329.126L440.212 333.153L418.855 326.397L420.129 322.37L428.916 325.149L431.098 318.254L422.311 315.474L423.585 311.447L444.942 318.204ZM417.071 342.315L420.239 335.389L416.327 332.403L418.164 328.388L436.311 342.565L433.01 349.782L410.417 345.324L412.254 341.308L417.071 342.315ZM423.533 337.882L421.124 343.149L432.62 345.557L432.859 345.033L423.533 337.882ZM414.122 355.455L406.928 351.026L409.143 347.429L428.217 359.174L423.619 366.64C423.015 367.621 422.326 368.374 421.552 368.9C420.795 369.436 420.008 369.778 419.191 369.926C418.38 370.103 417.566 370.103 416.749 369.925C415.938 369.777 415.188 369.49 414.497 369.065L413.843 368.663C413.135 368.226 412.514 367.669 411.98 366.989C411.453 366.339 411.069 365.601 410.826 364.775C410.59 363.978 410.532 363.116 410.652 362.188C410.773 361.26 411.135 360.306 411.739 359.325L414.122 355.455ZM417.555 357.57L415.39 361.085C414.898 361.884 414.73 362.645 414.887 363.367C415.032 364.108 415.45 364.691 416.14 365.116L416.467 365.317C417.157 365.743 417.866 365.853 418.592 365.649C419.308 365.464 419.912 364.971 420.404 364.172L422.569 360.657L417.555 357.57ZM416.099 377.916L407.259 388.958L404.112 386.438L410.311 378.694L406.314 375.494L400.355 382.938L397.207 380.419L403.166 372.974L399.119 369.734L392.68 377.778L389.532 375.259L398.612 363.917L416.099 377.916ZM381.503 402.172C383.262 404.48 384.05 406.709 383.866 408.861C383.666 411.026 382.54 412.891 380.487 414.456C378.434 416.021 376.346 416.607 374.222 416.215C372.082 415.835 370.132 414.491 368.372 412.184L365.346 408.215C363.535 405.839 362.742 403.587 362.969 401.456C363.178 399.338 364.309 397.496 366.362 395.931C368.414 394.366 370.498 393.756 372.613 394.102C374.711 394.461 376.665 395.828 378.476 398.203L381.503 402.172ZM368.69 398.984C368.079 399.45 367.641 399.931 367.377 400.429C367.125 400.943 367.007 401.475 367.024 402.025C367.042 402.575 367.187 403.135 367.46 403.705C367.734 404.274 368.097 404.856 368.549 405.45L371.887 409.827C372.313 410.386 372.774 410.867 373.268 411.268C373.762 411.67 374.272 411.952 374.798 412.114C375.324 412.276 375.868 412.304 376.43 412.197C377.006 412.107 377.582 411.842 378.158 411.402C378.735 410.963 379.143 410.477 379.382 409.946C379.634 409.432 379.751 408.9 379.734 408.35C379.717 407.8 379.58 407.233 379.324 406.651C379.068 406.068 378.726 405.497 378.299 404.937L374.962 400.56C374.509 399.967 374.044 399.462 373.567 399.048C373.09 398.634 372.589 398.345 372.063 398.183C371.537 398.021 370.993 397.993 370.43 398.1C369.881 398.224 369.301 398.519 368.69 398.984ZM355.034 430.384L347.619 417.743C346.324 415.534 345.898 413.459 346.342 411.517C346.767 409.586 348.13 407.946 350.43 406.596C352.73 405.247 354.836 404.853 356.748 405.414C358.641 405.985 360.235 407.375 361.53 409.583L368.945 422.225L365.302 424.362L357.887 411.72C357.218 410.579 356.427 409.843 355.516 409.512C354.605 409.181 353.578 409.35 352.437 410.019C351.297 410.688 350.648 411.501 350.492 412.459C350.336 413.416 350.593 414.465 351.262 415.605L358.677 428.247L355.034 430.384ZM326.537 418.662L330.415 416.988L333.079 423.157C333.282 423.627 333.574 423.954 333.956 424.138C334.318 424.33 334.783 424.304 335.351 424.058L339.816 422.13L336.467 414.374L340.345 412.7L349.225 433.264L341.352 436.664C340.295 437.121 339.301 437.376 338.371 437.429C337.441 437.482 336.598 437.358 335.841 437.057C335.072 436.785 334.403 436.365 333.833 435.798C333.243 435.24 332.779 434.569 332.441 433.785L332.136 433.08C331.772 432.238 331.655 431.348 331.784 430.409C331.922 429.49 332.376 428.631 333.147 427.833L332.918 427.305C332.199 427.522 331.546 427.491 330.96 427.209C330.354 426.936 329.903 426.457 329.607 425.772L326.537 418.662ZM341.415 425.831L337.713 427.43C336.773 427.836 336.151 428.36 335.848 429.002C335.553 429.664 335.578 430.397 335.925 431.2L336.077 431.552C336.373 432.238 336.872 432.72 337.573 432.998C338.283 433.296 339.107 433.241 340.048 432.835L343.749 431.237L341.415 425.831ZM301.234 434.2L299.876 425.862L304.046 425.183L307.645 447.292L298.991 448.701C297.854 448.886 296.833 448.858 295.929 448.616C295.029 448.395 294.255 448.024 293.608 447.502C292.944 447.005 292.411 446.389 292.011 445.655C291.592 444.945 291.318 444.19 291.188 443.39L291.065 442.632C290.931 441.81 290.946 440.976 291.111 440.128C291.258 439.304 291.564 438.53 292.03 437.806C292.478 437.106 293.092 436.498 293.873 435.982C294.653 435.466 295.612 435.115 296.749 434.93L301.234 434.2ZM301.882 438.18L297.807 438.843C296.881 438.994 296.196 439.365 295.751 439.956C295.286 440.55 295.119 441.247 295.249 442.048L295.311 442.427C295.441 443.227 295.821 443.835 296.451 444.251C297.059 444.671 297.827 444.805 298.753 444.654L302.828 443.991L301.882 438.18ZM285.562 450.393L281.341 450.558L280.624 432.204L270.456 432.601L270.298 428.572L284.687 428.01L285.562 450.393ZM254.113 432.32L261.703 432.949L263.184 428.255L267.585 428.62L260.408 450.502L252.5 449.846L249.024 427.081L253.425 427.446L254.113 432.32ZM260.477 436.893L254.705 436.415L256.341 448.046L256.915 448.093L260.477 436.893ZM235.874 426.533L235.31 426.416L231.193 446.282L227.057 445.425L231.602 423.491L239.687 425.166L238.14 445.564L238.704 445.681L242.82 425.815L246.956 426.672L242.411 448.606L234.327 446.931L235.874 426.533ZM220.343 443.538L206.945 439.005L208.237 435.186L217.634 438.365L219.275 433.515L210.242 430.459L211.534 426.639L220.567 429.695L222.228 424.785L212.468 421.483L213.76 417.663L227.522 422.319L220.343 443.538ZM200.487 436.42L185.956 429.422L187.705 425.79L193.068 428.372L201.037 411.823L204.842 413.655L196.873 430.205L202.236 432.787L200.487 436.42ZM177.992 421.659C177.772 421.999 177.502 422.282 177.18 422.506C176.828 422.736 176.467 422.884 176.095 422.949C175.712 423.033 175.327 423.039 174.941 422.968C174.544 422.915 174.166 422.773 173.807 422.542C173.466 422.323 173.19 422.043 172.977 421.704C172.735 421.37 172.573 421.012 172.49 420.628C172.395 420.263 172.389 419.879 172.471 419.475C172.524 419.078 172.66 418.708 172.879 418.368L174.992 415.085C175.431 414.403 176.034 413.979 176.801 413.813C177.549 413.636 178.264 413.766 178.946 414.205L180.668 415.313L179.317 417.412L178.026 416.581C177.541 416.269 177.126 416.382 176.779 416.92L176.572 417.243C176.75 417.282 176.919 417.353 177.081 417.457C177.44 417.688 177.731 417.964 177.955 418.286C178.168 418.626 178.316 418.987 178.399 419.371C178.482 419.754 178.497 420.144 178.444 420.542C178.373 420.928 178.223 421.3 177.992 421.659ZM157.781 401.413C157.207 402.101 156.979 402.924 157.096 403.883C157.196 404.828 157.73 405.704 158.696 406.511C159.515 407.194 160.306 407.562 161.068 407.614C161.816 407.683 162.429 407.431 162.908 406.857C163.154 406.562 163.322 406.244 163.412 405.903C163.489 405.578 163.47 405.201 163.356 404.772C163.211 404.346 162.971 403.868 162.635 403.338C162.283 402.794 161.802 402.156 161.19 401.423C159.662 399.592 158.744 397.896 158.436 396.333C158.128 394.77 158.603 393.236 159.861 391.729L160.107 391.434C160.776 390.631 161.532 390.025 162.373 389.616C163.185 389.209 164.052 389.002 164.975 388.995C165.899 388.987 166.848 389.182 167.823 389.578C168.798 389.975 169.768 390.577 170.735 391.383C171.865 392.326 172.734 393.315 173.343 394.351C173.921 395.389 174.265 396.426 174.373 397.461C174.468 398.513 174.349 399.538 174.015 400.538C173.668 401.554 173.118 402.512 172.366 403.413L171.751 404.15L168.508 401.444L169 400.854C169.861 399.823 170.256 398.749 170.186 397.635C170.086 396.523 169.405 395.441 168.143 394.389C167.161 393.569 166.254 393.173 165.424 393.203C164.593 393.232 163.932 393.542 163.44 394.132C163.208 394.41 163.038 394.713 162.931 395.041C162.811 395.385 162.792 395.758 162.873 396.159C162.941 396.577 163.12 397.046 163.409 397.565C163.698 398.084 164.123 398.675 164.682 399.336C165.428 400.208 166.065 401.059 166.594 401.89C167.11 402.737 167.474 403.582 167.687 404.426C167.883 405.257 167.882 406.09 167.685 406.926C167.488 407.761 167.034 408.605 166.323 409.457L166.2 409.604C165.613 410.309 164.933 410.84 164.163 411.197C163.362 411.557 162.524 411.746 161.647 411.765C160.754 411.77 159.844 411.594 158.919 411.239C157.976 410.869 157.055 410.309 156.154 409.557C155.138 408.71 154.361 407.811 153.82 406.86C153.266 405.925 152.932 404.994 152.818 404.065C152.688 403.123 152.758 402.223 153.029 401.365C153.283 400.494 153.704 399.706 154.292 399.002L155.03 398.117L158.273 400.823L157.781 401.413ZM131.165 383.657L121.631 370.648L124.883 368.265L128.401 373.066L143.217 362.208L145.713 365.615L130.898 376.473L134.417 381.273L131.165 383.657ZM126.167 361.626C123.636 363.044 121.318 363.511 119.213 363.027C117.098 362.524 115.409 361.147 114.148 358.895C112.887 356.643 112.6 354.493 113.287 352.445C113.963 350.379 115.567 348.637 118.099 347.22L122.454 344.78C125.06 343.321 127.402 342.853 129.48 343.376C131.548 343.881 133.212 345.259 134.473 347.511C135.735 349.764 136.046 351.912 135.406 353.958C134.756 355.984 133.129 357.727 130.523 359.187L126.167 361.626ZM131.123 349.388C130.748 348.718 130.333 348.217 129.878 347.885C129.404 347.563 128.894 347.372 128.347 347.312C127.799 347.251 127.225 347.317 126.622 347.507C126.02 347.698 125.393 347.976 124.742 348.341L119.94 351.03C119.325 351.374 118.785 351.762 118.318 352.195C117.851 352.628 117.501 353.093 117.266 353.591C117.031 354.089 116.928 354.624 116.954 355.196C116.963 355.778 117.144 356.386 117.498 357.018C117.853 357.651 118.276 358.123 118.768 358.434C119.242 358.756 119.752 358.947 120.3 359.007C120.847 359.068 121.427 359.012 122.039 358.84C122.652 358.668 123.266 358.41 123.88 358.066L128.682 355.376C129.334 355.011 129.898 354.622 130.375 354.208C130.852 353.794 131.208 353.338 131.443 352.84C131.677 352.342 131.781 351.807 131.754 351.235C131.709 350.674 131.498 350.058 131.123 349.388ZM108.452 347.285L105.645 340.413L120.744 332.864L123.766 331.63L123.475 330.919L120.453 332.153L104.387 337.332L101.58 330.459L122.317 321.99L123.769 325.545L109.905 331.207L105.02 332.787L105.31 333.498L124.543 327.441L126.939 333.306L108.988 342.504L109.278 343.215L113.873 340.924L127.737 335.262L129.189 338.817L108.452 347.285ZM108.549 323.718C105.748 324.473 103.386 324.359 101.464 323.375C99.5359 322.37 98.236 320.621 97.5642 318.129C96.8924 315.636 97.1401 313.482 98.3074 311.664C99.4692 309.827 101.451 308.53 104.252 307.775L109.072 306.476C111.956 305.699 114.341 305.818 116.228 306.834C118.109 307.829 119.386 309.573 120.057 312.066C120.729 314.558 120.505 316.718 119.384 318.544C118.258 320.35 116.253 321.642 113.369 322.419L108.549 323.718ZM116.35 313.065C116.15 312.324 115.87 311.736 115.51 311.303C115.13 310.875 114.682 310.565 114.166 310.373C113.65 310.18 113.077 310.103 112.446 310.14C111.815 310.178 111.14 310.294 110.419 310.488L105.104 311.92C104.425 312.104 103.805 312.348 103.247 312.653C102.688 312.958 102.235 313.324 101.885 313.749C101.536 314.175 101.304 314.668 101.19 315.229C101.056 315.795 101.083 316.429 101.272 317.129C101.461 317.83 101.756 318.391 102.157 318.813C102.537 319.241 102.985 319.551 103.501 319.743C104.017 319.936 104.593 320.023 105.229 320.007C105.865 319.99 106.523 319.89 107.203 319.706L112.517 318.274C113.238 318.08 113.881 317.84 114.445 317.556C115.009 317.271 115.465 316.916 115.815 316.49C116.164 316.065 116.396 315.572 116.51 315.011C116.603 314.455 116.55 313.807 116.35 313.065ZM114.696 285.84L115.295 290.021L108.643 290.975C108.136 291.047 107.744 291.244 107.466 291.564C107.186 291.862 107.09 292.318 107.177 292.931L107.867 297.745L116.23 296.547L116.829 300.728L94.6558 303.906L93.4392 295.417C93.2758 294.276 93.2904 293.251 93.4831 292.339C93.6757 291.428 94.0163 290.647 94.5048 289.995C94.9691 289.325 95.5496 288.789 96.2463 288.387C96.9401 287.965 97.7093 287.693 98.554 287.572L99.3142 287.463C100.222 287.333 101.112 287.453 101.984 287.824C102.835 288.197 103.545 288.861 104.112 289.814L104.682 289.732C104.661 288.981 104.863 288.359 105.288 287.867C105.71 287.354 106.291 287.045 107.03 286.939L114.696 285.84ZM103.876 298.317L103.304 294.326C103.159 293.312 102.816 292.575 102.276 292.114C101.715 291.655 101.001 291.488 100.135 291.612L99.7551 291.667C99.016 291.773 98.4203 292.127 97.968 292.731C97.4946 293.338 97.3305 294.148 97.4758 295.161L98.0478 299.153L103.876 298.317ZM114.096 266.601L114.177 270.824L107.458 270.953C106.946 270.963 106.533 271.109 106.218 271.393C105.903 271.655 105.751 272.095 105.763 272.714L105.856 277.577L114.303 277.415L114.383 281.638L91.9875 282.067L91.8235 273.492C91.8014 272.34 91.942 271.324 92.2452 270.444C92.5484 269.563 92.9825 268.829 93.5474 268.242C94.0905 267.635 94.7325 267.174 95.4733 266.861C96.2137 266.527 97.0105 266.352 97.8637 266.335L98.6315 266.321C99.5487 266.303 100.417 266.532 101.237 267.007C102.036 267.483 102.658 268.228 103.104 269.244L103.68 269.233C103.751 268.485 104.028 267.892 104.51 267.457C104.992 266.999 105.607 266.763 106.353 266.749L114.096 266.601ZM101.825 277.654L101.748 273.622C101.728 272.599 101.479 271.825 100.999 271.3C100.498 270.777 99.8108 270.523 98.9363 270.54L98.5524 270.547C97.8058 270.561 97.1711 270.84 96.648 271.384C96.1037 271.927 95.8413 272.711 95.8609 273.735L95.938 277.766L101.825 277.654ZM100.595 261.776C97.7091 261.476 95.5452 260.523 94.1032 258.915C92.6635 257.286 92.0767 255.188 92.3428 252.62C92.6088 250.053 93.6124 248.13 95.3534 246.852C97.0966 245.553 99.4112 245.052 102.297 245.352L107.262 245.866C110.233 246.174 112.417 247.14 113.815 248.765C115.214 250.368 115.781 252.454 115.515 255.022C115.249 257.589 114.265 259.525 112.564 260.828C110.866 262.111 108.531 262.598 105.56 262.29L100.595 261.776ZM111.695 254.626C111.774 253.862 111.724 253.213 111.543 252.68C111.341 252.144 111.034 251.694 110.621 251.329C110.209 250.965 109.701 250.687 109.099 250.496C108.497 250.305 107.824 250.171 107.082 250.094L101.607 249.527C100.907 249.454 100.241 249.46 99.6105 249.545C98.9797 249.63 98.425 249.808 97.9464 250.08C97.4678 250.352 97.0748 250.73 96.7674 251.213C96.4388 251.693 96.2371 252.295 96.1623 253.016C96.0875 253.737 96.1617 254.367 96.3848 254.905C96.5866 255.441 96.8939 255.891 97.3065 256.255C97.7191 256.62 98.2254 256.908 98.8254 257.12C99.4254 257.333 100.075 257.475 100.776 257.548L106.25 258.115C106.993 258.192 107.679 258.199 108.307 258.135C108.936 258.072 109.489 257.904 109.968 257.632C110.447 257.36 110.84 256.982 111.147 256.499C111.433 256.014 111.616 255.39 111.695 254.626ZM120.18 227.463L118.54 234.638L101.716 231.844L98.7212 231.159L98.5501 231.908L101.545 232.593L117.913 237.383L116.273 244.558L94.2651 240.317L95.1206 236.573L111.831 239.867L114.638 240.508L114.81 239.76L112.002 239.118L95.6339 234.327L97.1452 227.714L113.97 230.508L116.777 231.15L116.948 230.401L114.141 229.759L97.6585 225.468L98.514 221.724L120.18 227.463ZM123.477 204.903L121.493 203.796L132.872 183.395C132.562 182.636 132.253 181.877 131.984 181.177C131.247 181.316 130.438 181.451 129.63 181.586L118.251 201.988L116.267 200.881L126.835 181.933C124.476 182.156 122.123 182.236 120.006 182.155L120.911 180.534C124.309 179.828 128.538 178.815 133.693 177.257L134.42 177.663C135.804 182.868 137.164 186.998 138.349 190.26L137.445 191.881C136.264 190.123 135.096 188.079 134.046 185.955L123.477 204.903Z" fill="black"/>
<circle cx="270.718" cy="271.111" r="141" transform="rotate(-37.6781 270.718 271.111)" stroke="black" stroke-width="2"/>
<circle cx="270.718" cy="271.111" r="192" transform="rotate(-37.6781 270.718 271.111)" stroke="black" stroke-width="2"/>
</svg>
